<!DOCTYPE svg PUBLIC "-//W3C//DTD SVG 1.1//EN" "http://www.w3.org/Graphics/SVG/1.1/DTD/svg11.dtd">
<!-- Uploaded to: SVG Repo, www.svgrepo.com, Transformed by: SVG Repo Mixer Tools -->
<svg height="800px" width="800px" version="1.1" id="Layer_1" xmlns="http://www.w3.org/2000/svg" xmlns:xlink="http://www.w3.org/1999/xlink" viewBox="0 0 512 512" xml:space="preserve" fill="#000000">
<g id="SVGRepo_bgCarrier" stroke-width="0"/>
<g id="SVGRepo_tracerCarrier" stroke-linecap="round" stroke-linejoin="round"/>
<g id="SVGRepo_iconCarrier"> <circle style="fill:#1d349a;" cx="256" cy="256" r="256"/> <ellipse style="fill:#ED4C54;" cx="256" cy="421.646" rx="182.284" ry="14.369"/> <path style="fill:#666666;" d="M65.982,67.223h380.037c12.486,0,22.7,10.217,22.7,22.702V324.03H43.279V89.924 c0-12.486,10.214-22.702,22.7-22.702H65.982z"/> <g> <path style="fill:#FFFFFF;" d="M58.695,308.615h394.607V89.921c0-3.979-3.308-7.287-7.287-7.287H65.979 c-3.976,0-7.287,3.308-7.287,7.287v218.693h0.003V308.615z"/> <path style="fill:#FFFFFF;" d="M468.718,324.03v24.827c0,12.489-11.261,22.702-25.026,22.702H68.303 c-13.765,0-25.026-10.214-25.026-22.702V324.03h425.438H468.718z"/> </g> <circle style="fill:#B6B6B8;" cx="256" cy="346.803" r="7.814"/> <path style="fill:#C2C2C4;" d="M305.066,407.272l36.096,11.564H170.836l29.123-11.564v-35.712h105.104v35.712H305.066z"/> <path style="fill:#ECF0F1;" d="M199.959,407.272h105.104l36.096,11.564v4.981h-85.161h-85.164v-4.981l29.123-11.564H199.959z"/> <path style="fill:#919191;" d="M199.959,371.559h105.104v35.712L199.959,371.559z"/> <path style="fill:#21D0C3;" d="M376.375,256.071h56.25v4.493h-56.25V256.071z"/> <path style="fill:#FAD24D;" d="M376.375,270.55h56.25v4.493h-56.25V270.55z"/> <path style="fill:#1d349a;" d="M376.375,285.028h56.25v4.493h-56.25V285.028z"/> <path style="fill:#21D0C3;" d="M370.888,256.071H365.4v4.493h5.487V256.071z"/> <path style="fill:#FAD24D;" d="M370.888,270.55H365.4v4.493h5.487V270.55z"/> <path style="fill:#1d349a;" d="M370.888,285.028H365.4v4.493h5.487V285.028z"/> <path style="fill:#21D0C3;" d="M363.459,106.554c5.86,0,3.853,2.072,6.825,3.016c2.368,0.756,0.764-0.469,3.533-0.596 c0.844-0.063,1.69,0.187,2.531,0.095c2.41-0.221,1.165-0.346,2.007-0.756c1.768-0.847,8.031-0.69,9.558-0.158 c1.524,0.535,1.283,0.85,3.693,1.385c3.093,0.656,6.505-0.661,9.236,0.784c1.729,0.944,0.968,1.228,3.696,1.26 c2.248,0,4.375-0.535,6.423-0.032c2.408,0.564,0.842-0.095,3.691-0.535c0.923-0.124,1.445,0,2.29,0.283 c2.009,0.661,1.566,1.099,4.257,0.976c4.737-0.28,7.628,1.946,11.885,2.544c2.932,0.406,5.904-0.221,5.703,3.331 c-3.051,0.377-5.498-2.326-8.352-0.63c0.121,2.67,1.647,0.973,3.132,3.142c-0.118,0.034-0.278,0.063-0.362,0.095 c-2.248,0.535-3.253,1.194-4.858,3.298c-2.209,0-3.855-0.501-6.185,0.693c-0.401,3.646,4.336,2.702,3.775,8.139 c-0.039,1.005-0.039,2.673-0.202,4.084c-2.007-0.187-6.786-5.28-7.709-6.789c-1.69-2.768,3.213-8.892,0.322-8.737 c-1.044,0.066-0.362,0.661-1.445,1.763c-2.851-0.129-1.527-2.264-5.02-0.976c-0.802,3.082,1.165,2.702-0.362,3.52 c-1.566,0.815-2.77-0.377-3.937-0.567c-0.242-0.063-7.83,0.343-8.189,0.501c-0.844,1.007-2.368,4.873-2.731,5.847 c2.489,1.477,4.215,1.131,5.099,1.162c1.207,0.032,1.608,0.759,2.571,0.973c2.851,0.693,0.081-0.913,2.368,0 c1.726,1.888,3.452,3.741,5.181,5.597c-0.322,0.722-0.603,1.411-0.884,2.104c-1.846-1.379-2.127-4.305-4.414-5.152 c-0.362,3.016,2.691,1.632,1.002,8.703c-1.445,6.161-2.529,3.835-5.138,4.525c-0.603,0.377-2.206,4.525-2.366,5.217 c1.925,1.792,4.294,2.736,4.173,6.439c-1.125,0.567-1.846,1.099-3.37,0.69c-1.608-6.348-1.086-3.174-3.011-5.089 c-2.006-2.012,0.522-3.897-5.06-1.666c-0.844-1.225-0.322-1.099-0.766-2.45c-1.403,0.187-3.332,2.009-3.775,3.423 c1.207,0.63,2.167,1.445,2.77,1.54c1.165,0.124,1.726-0.722,3.295,0.28c-0.884,1.76-1.527,1.382-2.248,3.174 c1.283,2.104,3.494,3.615,4.255,6.41c0.039,0.095,0.081,0.218,0.121,0.346c0.443,1.445,0.766,0.346,0.842,2.355 c0.042,1.477-0.682,2.296-1.204,3.772c-2.61,6.818-6.423,5.879-11.601,8.391c0.081,1.886,1.726,4.931-2.049,4.242 c-0.28-3.045,1.327-1.477,1.005-4.396c-2.45-0.85-3.855,0.312-4.939,2.888c0.963,4.525,6.423,4.87,4.978,11.785 c-1.69,1.411-3.373,2.797-5.02,4.181c-1.527-0.976,0.121-0.255-1.324-2.046c-1.527-1.823-3.333-3.111-5.018-4.619 c-0.124,0.252-0.244,0.501-0.364,0.756c-0.561,1.474-1.283,3.14-0.92,4.619c0.16,0.753,1.445,3.517,2.127,4.116 c1.207,1.162,2.447,1.414,2.851,3.237c0.16,0.627,0.764,5.309,0.764,5.592c-4.978-1.823-3.494-5.123-5.301-8.328 c-0.764-1.445-0.963-1.102-1.967-2.515c-0.081-2.576,0.682-4.682,0.081-7.35c-0.401-1.574-1.165-3.868-1.566-5.469 c-1.807,0.377-3.412,2.89-3.817,0.441c-0.079-0.441-0.16-0.85-0.2-1.225c-1.044-4.525-2.529-3.3-4.055-7.638 c-2.45,0.784-2.529,0.85-5.421,1.319l-0.039,0.053l0.008,0.16c-1.154,1.6,0.058,0.92-1.962,2.592 c-2.41,1.98-3.976,4.685-6.665,6.285c-0.322,2.799,0.242,3.425-0.48,6.757c-0.28,1.223-1.687,4.522-3.333,4.273 c-0.522-0.095-2.731-5.437-3.253-6.914c-0.884-2.513-1.888-4.367-2.529-7.261c-0.362-1.54-0.606-4.493-0.968-5.529 c-1.726,0.25-1.645,1.322-3.292,0.189c-1.165-0.815-0.64-1.319-1.285-2.547c-1.366-1.257-2.77-2.513-4.173-3.77 c-1.086-0.343-5.265,0.252-7.029,0.06c-3.171-0.28-3.452-0.095-5.341-2.573c-3.332,0.158-3.051,1.379-6.301-1.353 c-2.13-1.758-1.729-4.588-4.821-2.982c-0.118,2.576,1.165,3.142,2.329,4.339c0.842,0.91,1.888,1.54,2.329,2.765 c0.039,0.032,0.242,1.196,0.28,1.35c3.011,0.189,3.735-1.225,5.38-2.421c1.608,1.477,0.039,1.732,2.368,2.89 c1.846,0.913,1.487,0.377,2.691,1.851c0.603,1.983-4.134,7.355-5.703,8.331c-1.204,0.753-1.849,0.314-2.93,1.194 c-1.605,1.322,0.202,1.133-2.61,2.138c-3.008,1.07-5.983,3.331-9.154,3.52c-0.685-1.823-1.364-3.678-2.049-5.532 c-2.006-6.314-1.928-3.866-3.974-7.134c-0.965-1.414-0.564-2.326-1.207-3.583c-0.443-0.941-1.125-1.35-1.726-2.513 c-0.923-1.792-2.006-4.588-4.134-4.305l-1.033-5.133c0.267-0.005,0.603-0.032,1.033-0.084c0.441-0.878,3.693-8.863-0.525-7.856 c-1.246,0.312-0.401,0.753-2.167,0.312c-1.846-0.469-0.079-0.815-2.127-0.533c-2.009,0.28-4.417,2.012-5.985-3.926 c-0.601-2.141-1.687-3.992-4.173-0.759c0.643,1.102,1.083,1.196,1.805,2.264c-0.2,0.312-0.881,1.102-1.123,1.35 c-1.364,1.319,0.564,0.69-1.647,0.973c-1.204-0.878-0.963-2.012-2.127-3.58c-2.049-2.924-0.724-1.571-1.771-4.367 c-0.821-0.706-2.18-1.233-3.292-1.925v-0.021l-0.06-0.042c-0.28-0.187-0.561-0.375-0.802-0.598c-1.768-1.537-2.13-2.919-4.095-2.576 c-0.042,1.445,0.16,1.508,0.884,2.452c2.731,3.331,1.888,2.201,4.013,3.423l0.081,0.045v0.013c0.498,0.28,1.078,0.677,1.867,1.238 c-2.72,2.339-0.218,2.599-1.867,3.378v0.003l-0.018,0.008l-0.06,0.032c-0.163,0.06-0.32,0.126-0.441,0.187 c-0.564-1.382,0.682-0.722-0.766-2.734c-0.802-1.036-1.563-1.35-2.807-1.92c-3.135-1.445-2.731-2.573-4.659-4.461 c-2.169,0.066-1.687,0.724-3.213,1.479c-1.846,0.878-1.563-0.155-3.733,0.032c-1.768,3.048,0.764,0.504-2.45,3.019 c-3.855,2.919-0.682,5.97-6.865,6.883c-0.443,0.06-0.606,0-1.041,0.155c-1.128,0.393-0.53,0.087-1.104,0.659l-1.023,0.039l0,0 c-0.166-1.285-1.605-1.5-3.137-1.55c-0.842-2.797-0.842-2.104-0.2-4.68c0.362-1.445,0.039-2.141,0.362-3.586 c0.802-3.612,7.103-0.029,8.913-1.508c0.842-1.54,0.965-3.045,0-4.525c-1.007-1.477-2.329-1.287-3.011-2.702 c1.524-1.005,0.398-0.126,1.726-0.409c1.563-0.343,1.361-0.784,3.208-1.131c1.647-0.314,2.694-1.795,4.299-2.797 c2.288-1.445,1.202-2.736,3.974-3.174c4.459-0.756,1.566-0.63,2.051-4.685c0.677-0.25,1.319-0.535,1.964-0.815 c1.406,1.792-0.362,1.07,1.324,2.261c0.443-0.25,0.965-0.501,1.445-0.751c-0.242-1.951-1.165-1.574-1.768-3.992 c-2.209,0.343-3.011,2.167-4.777,1.508c-1.726-0.63-1.804-3.048-1.726-5.06c0.64-1.508,3.853-2.324,5.096-2.702 c2.009-0.661,1.726-1.98,3.575-3.775c2.41-2.358,0.64,0.032,1.807-3.014c2.649-0.097,1.406-0.192,2.969-0.976l0.06-0.024 l0.018-0.008l0.142-0.055c0.923-0.409,2.127-0.504,3.331-0.913c4.414-1.445,6.222-0.722,9.433,0.567 c2.492,1.005,9.998,1.036,10.562,4.116c-1.807,1.851-3.533,0.501-6.143,0.664c0.483,2.387,0.685,2.387,2.89,3.045 c0.362-1.133-0.16-0.69,0.441-1.414c0.724,0.158,1.445,0.28,2.167,0.406c0.724-2.418,1.566-2.072,4.018-2.355 c-0.401-1.666-0.844-1.194,0.079-2.513c2.531,0.25,0.485,0.032,1.726,2.012c1.768-0.221,3.494-2.138,5.943-2.389 c1.527-0.155,1.445,0.409,3.612,0.192c1.768-0.192,1.687-0.818,3.454-0.095c0.64-1.165,0-1.133,1.563-1.414 c2.41-0.409,4.498,1.036,6.828,1.35c-1.726-2.075-3.37-1.668-1.246-5.123c2.691-0.535,2.932-0.158,4.095,1.82 c0.802-0.438,1.044-0.878,1.485-1.005c1.207-0.283,1.608,0.722,4.215-0.784c1.647-0.913-1.044-0.317,1.928-1.133 c1.165-0.283,1.165,0.189,2.206-0.659c2.371-0.85,4.701-1.729,7.069-2.61c2.529-0.032,1.246,0.722,4.137-0.346 c3.934-1.385,5.057,0.095,8.029,0.189c6.953,0.264,4.488,4.139,15.363,4.139c1.729,0,1.608-0.661,4.055-0.69 c0.121,0,0.242,0,0.404,0L363.459,106.554z M405.899,163.715c0.2,1.508,0.963,2.639,2.29,3.237c1.364-2.135-0.322-2.261,4.656-3.804 c0.322-0.095,0.643-0.221,0.923-0.343c4.257-2.387,1.324-0.661,4.538-1.917c0.042-1.946-0.443-3.237-0.603-5.341 c-0.081-2.358-0.884-3.271-3.011-3.646c-0.202,4.369,2.851,2.956-2.088,7.509c-2.571,2.421-4.257-0.406-6.704,4.307L405.899,163.715 L405.899,163.715z M377.954,223.139c0.28-1.319,0.483-2.953,1.083-3.929c1.888,0,0.163,1.54,3.014,1.194 c0.483-1.097,0.483-1.632,0.28-2.797c-1.285-0.283-1.645-0.032-2.571,0.756c-0.28-0.314-0.559-0.627-0.842-0.944 c-1.324-0.941-1.165,1.228-2.408-1.225c-1.324-2.544,0.16-2.578-2.731-4.336c-1.768-1.07-2.371-1.666-3.814-3.145 c-2.489-2.61-0.283-1.445-4.417-2.702c-0.081,2.859,0.561,1.165,2.77,4.493c0.923,1.574,1.807,3.145,2.731,4.714 c1.327,2.169,2.694,8.076,6.909,7.922h-0.003V223.139z M384.335,219.018c3.575,0.535,6.14,1.825,7.148,1.133 c1.086-1.228,0.724-2.041,1.807-3.835c1.445-2.324,0.441-1.6,2.288-3.646c-1.044-3.738-1.527-2.072,0.48-5.876 c-0.32-1.191-1.204-2.573-2.209-3.295c-1.165,0.722-0.16-0.097-0.963,0.939c-1.408,1.54-2.853,3.082-4.218,4.622 c-1.207,1.165-0.724,0.28-2.571,1.729c-0.522,0.283-1.044,0.567-1.605,0.85c-0.884,0.312-1.448-0.69-1.647,1.917 c-0.121,1.194,1.123,3.863,1.485,5.463L384.335,219.018z M298.745,145.87c0.28,3.838,2.61,5.312,4.257,7.071 c-0.202,1.823-0.646,1.35-0.606,3.895c1.97,1.385,3.412,2.233,5.985,1.54c0.362-3.079-0.646-2.922-1.605-5.025 c0.16-0.252,0.601-0.567,0.682-0.63c0.722-0.941,0.362,0.377,0.722-1.228c-1.886-0.596-4.939-2.481-5.178-4.962 c0.92-0.722,0.64-0.283,1.322-0.722c1.485-0.944,0.362,0.501,1.246-1.099c-0.761-1.445-1.608-1.7-3.452-0.976 C301.315,144.051,299.186,145.527,298.745,145.87z M282.322,146.878c-1.244-1.695-1.165-2.544-3.573-2.607 c-0.963,1.007-2.088,2.513-2.61,4.052c-0.802,2.326-0.242,0.724-0.16,3.237c-0.042,0.095,0,0.223,0,0.314 c-0.042,1.508-0.404-0.283-0.163,1.102c1.888-0.377,0.443-0.346,1.849-0.786c1.324-0.438,5.38-1.634,6.544-1.35 c2.77,0.627,5.102,2.768,8.234,0.627c-0.16-2.731-3.536-3.77-5.863-4.965c0.124-2.513,0.802-0.533,0.64-2.951 c-0.802-0.032-1.283-0.158-2.046,0.155c-1.805,0.784-0.805,1.007-0.805,1.287c0.081,1.35,1.807-0.28-0.037,1.385 c-0.522,0.441-1.366,0.441-2.009,0.501H282.322z M235.441,127.827c-0.076,4.401,1.487,2.922,2.972,5.091 c-0.68,1.854-0.802,0.409-1.563,2.324c-0.682,1.605,0.16,0.16-0.283,2.956c1.165,0.06,2.89-0.343,4.419-0.472 c2.167-0.187,2.127-0.377,2.89-2.544c-1.204-1.445-2.41-2.89-3.654-4.336c-1.569-2.324,0-0.727-0.483-2.673 c-0.359-0.69-0.682-1.379-1.002-2.072c-2.085,0.695-1.886,0.504-3.295,1.729L235.441,127.827z"/> <path style="fill:#FAD24D;" d="M284.775,172.208c-0.443,1.411,1.967,6.19,2.568,7.35c0.603,1.165,1.566,1.668,1.849,3.333 c0.401,2.293-0.081,2.009,1.204,3.549c2.691,3.174-0.121,2.61,4.055,5.721c3.132,2.326,2.329,3.016,3.654,6.127 c2.049,0.564,8.15-2.106,9.194-1.322c1.246,2.169-1.442,5.626-2.127,7.512c-2.248,6.319-6.182,6.225-9.196,11.061 c-1.645,2.61-2.408,2.956-3.932,6.096c-1.729,3.551,3.491,13.385,0.362,17.503c-0.682,0.944-2.893,1.511-5.66,4.369 c-2.932,3.111,0.081,2.576-1.044,7.762c-0.884,1.196-1.967,1.26-3.053,2.106c-0.401,1.225-0.079,2.201-0.761,3.709 c-0.724,1.825-0.842,0.847-1.886,2.326c-0.764,1.16-0.685,1.632-1.566,2.702c-0.76,0.973-1.165,1.257-1.886,1.886 c-3.494,3.142-11.004,3.237-11.643,2.797c-1.768-1.479-0.561-1.854-1.005-3.929c-0.427-1.823-1.416-3.349-2.246-4.756v-0.047 l-0.063-0.108c-0.401-0.688-0.764-1.35-0.965-1.98c-1.445-4.464-0.92-7.854-3.449-12.378c-3.174-5.85,1.766-8.895,1.563-12.194 c-0.081-0.878-0.398-1.411-0.483-2.106c-0.601-3.646-0.96-6.914-3.452-9.776c-2.731-3.108-2.368-2.009-1.485-7.127 c1.123-5.876-1.445-4.369-5.057-4.525c-1.771-5.344-5.223-2.739-8.674-1.165c-2.169,0.973-2.972-0.28-5.424,0.063 c-5.461,0.722-1.162,3.016-8.472-2.642c-3.051-2.358-1.002-1.165-2.81-4.116c-0.601-1.068-2.45-2.481-3.295-3.551 c-2.77-3.394,0.522-6.818,0.042-10.715c-0.844-7.229-2.049-0.944,2.088-9.679c2.167-4.651,5.461-4.682,6.303-6.76 c0.722-1.851,0.239-3.174,1.605-4.868c1.204-1.382,2.93-1.102,3.615-3.269c0.229-0.632,0.296-1.133,0.244-1.532l0,0l1.023-0.039 l-0.066,0.063c0.525,1.196-0.197,1.005,1.888,1.287c3.814,0.501,4.297-1.792,7.069-2.358c1.364-0.283,9.918-0.63,10.518-0.472 c1.846,2.014,0.322,3.428,0.322,5.123c2.009,1.036,4.858,1.287,6.022,2.358c1.324,1.225,0.682,1.036,1.324,1.254l0.081,0.024v0.011 c0.239,0.071,0.59,0.194,1.186,0.417c1.605,0.535,1.527,0.847,3.25,0.973c1.566-5.123-0.039-4.588,7.509-2.233 c7.872,2.515,4.336,0.221,7.67,0.567c1.337,0.129,1.298,0.485,2.46,0.462l1.033,5.133h-0.001V172.208z M304.528,233.55 c-1.766,0.878-2.009,2.89-3.332,4.021c-1.445,1.29-3.373,0.693-3.937,3.079c-0.722,2.985,1.207,2.072-0.923,5.97 c-0.761,1.445-0.802,5.06,0.362,6.127c3.494,3.298,5.383-5.028,6.185-7.635c0.603-1.854,1.165-3.96,1.804-5.687 C305.331,237.571,306.254,235.934,304.528,233.55z"/> <path style="fill:#1d349a;" d="M165.178,242.432c-1.083-1.758-3.733-2.573-5.863-3.989c-0.121-0.032-0.2-0.063-0.239-0.126 c-2.932-2.012-5.703-9.9-8.034-12.853c-1.083-1.416-1.766-0.786-2.248-3.016c-0.522-2.041,0.28-1.697,0.965-3.394 c-3.575-6.41,4.619-6.314,2.932-14.015c-0.362-1.414-1.406-3.391-2.29-4.021c-1.687,0.722-0.884,1.131-1.768,2.515 c-1.366-0.759-2.731-1.511-4.055-2.264c-4.137-3.895-1.925-1.068-3.09-3.612c-2.489-5.344-4.861-2.358-7.83-4.997 c-1.327-1.099-1.566-2.83-3.775-2.515c-3.331,0.441-1.485,0.941-4.939-0.63c-2.932-1.35-5.985-2.922-8.031-4.743 c-0.081-2.83,0.965-2.956-0.842-5.595c-0.884-1.35-2.088-2.452-2.812-3.52c-1.283-2.041,0.603-0.189-2.61-4.21 c-2.127-2.673,0.362-2.922-2.049-4.774c-3.169,1.474,1.807,5.653,3.375,12.412c-1.364-0.189-2.288-1.26-2.812-2.768 c-0.802-2.484,0.039-1.851-2.45-2.89c0.121-4.276,0.965-0.501-0.802-4.745c-0.603-1.571-0.242-2.264-0.844-3.866 c-0.483-1.382,0.242-0.129-0.561-0.913c-0.32-0.944,0.244-0.063-0.48-0.784c-0.722-0.786-0.039-0.095-0.682-0.567 c-1.608-1.099-1.967-2.484-2.248-4.682c-0.805-7.163,1.608-7.762,4.375-12.884c2.13-3.68,1.726-3.142,0.039-6.159 c0.404-1.511,0.923-1.54,0.805-3.615c-0.121-2.421-0.28-1.319,0.28-3.174c-0.081-0.095-0.202-0.158-0.28-0.187 c-0.079,0-0.2-0.095-0.28-0.126c-0.081-0.032-0.242-0.095-0.322-0.158c-0.441-0.129-0.842-0.283-1.327-0.441 c0.2-3.835,0.802-6.098-3.654-6.536c-1.967-0.189-3.213-1.005-3.853-0.973c-0.364,0-2.212,0.913-3.615,1.257 c-2.492,0.661-1.165,0.596-3.454,0.189c-1.231-0.234-4.693,0.152-7.683-0.664l0.42-4.139c1.7-0.223,3.425-0.328,4.614-1.387 c-1.165-0.973-2.368-0.283-4.095-0.878c0.32-3.051,5.099-2.014,7.184-2.014c0.28-2.296-0.963-2.23,0.163-3.111 c0.643-0.501,13.128-3.678,16.184-3.079c4.659,0.85,9.314,1.7,13.97,2.515c2.853,0.28,7.389-1.634,10.322-1.511 c2.209,0.129,0.2,0.567,2.93,0.759c1.886,0.126,1.967-0.409,4.055,0.189c1.928,0.567,1.005,0.722,3.292,0.722 c0.362-1.225,0.722-2.481,1.125-3.741c-2.009,0.317-3.213,1.039-5.183,0.598c0.081-1.854,2.489-2.61,3.775-3.266 c4.377-2.201,7.389,1.411,12.128,1.758c1.766,0.126,3.051-1.102,5.096-1.165c-0.682,1.29-1.125,1.007-2.088,2.702 c0.884,2.326-0.359-0.756,0.685,1.319c0.16,0.252,0.28,0.252,0.443,0.913c-3.295,0.784-1.246,1.165-5.823,0.815 c0.564,0.786-0.48,0.349,1.285,1.165c1.485,0.69,3.615,0.312,5.181,0.25c0.522-0.944,0.842-1.76,1.766-2.106 c0.362-0.126,0.802-0.158,1.403-0.126c0.081,0.469,0.202,0.941,0.322,1.414c0,0.032,0.081,0.346,0.042,0.28 c0.039-0.063,0.079,0.192,0.121,0.285c2.529-1.445,0.401-1.479,1.766-4.087c-2.13-0.409-1.846-0.16-3.174-1.479 c1.287-1.385,3.775-1.854,5.624-1.729c-0.121,1.257-0.724,1.228-0.244,2.296c1.445-0.878,2.452-3.237,4.779-2.797 c0.443,0.312,0.965,0.596,1.445,0.878c-1.207,1.102-3.011,1.165-4.577,1.794c-0.682,6.818,2.209,1.099,1.246,5.781 c1.726-0.124,3.412-1.35,4.055-2.607c-0.64-0.818-1.563-0.818-2.088-1.792c0.406-1.257,1.27-2.209,2.489-2.776 c0.826-0.385,1.815-0.588,2.932-0.588c12.766,0.095,6.702,0.659,10.639,2.421c0.881,0.375,2.447,0.567,2.972,1.319 c0.802,1.196,0.039,2.324,1.319,3.269c1.125,0.815,1.287-0.032,2.773,1.791c-0.32,1.036-1.086,2.106-2.649,2.135 c-2.169,0.034-0.884-1.414-3.213-1.194c0.042,2.138,2.212,2.956,0.202,4.116c-1.766,1.039-0.643-0.375-1.967,0.346 c-0.039,0.034-0.163,0.095-0.202,0.129c-0.079,0.06-0.158,0.155-0.2,0.218c-0.242,0.255-0.443,0.475-0.64,0.695 c-3.213-0.85-2.61-0.472-4.538-2.547c-0.722-0.784-0.842-0.976-2.13-0.878c-0.802,0.029-1.844,0.372-2.61-0.314 c1.569-1.917,2.329-0.063,4.619-1.196c0.401-0.189,2.932-2.104,3.333-2.547c-0.685-1.506-0.084-0.255-1.083-1.225 c-2.251-2.233-2.893-1.666-5.941-1.666c-1.429,1.608-2.5,3.594-4.055,4.464v0.003c-0.939,0.525-2.056,0.646-3.536,0.029 c0.682,2.702,2.447,0.627,2.61,3.895c-1.165-0.221-1.768-0.786-2.972-0.375c-2.571,0.941-0.28,0.847-0.081,1.35 c0,0.032,1.207,0.155,0,0.596c-1.327,0.469-0.2-0.252-2.77-1.729c0.362-0.63,0.722-1.287,1.083-1.946 c-2.085,0.63-4.695,1.634-7.145,2.797c-2.773,1.35-5.38,2.89-6.945,4.307c-0.042,2.358,0.401,0.784,0.643,3.58 c3.733,0.223,2.531,1.319,6.264,2.358c0.724,0.187,1.647,0.377,2.773,0.567c0,1.76-1.605,3.082-0.483,4.902 c2.61,1.789,2.691-1.7,3.333-3.929c8.837-1.802,4.577-4.344,6.862-9.091l0,0c0.343-0.711,0.831-1.466,1.529-2.282 c0.682,0.032,3.449,0.317,4.055,0.443c2.007,0.343,0.926,0.815,3.093,1.758c-0.042,1.697-0.926,3.897,1.645,3.491 c1.967-0.343,1.527-1.854,3.937-2.235c1.083,2.484,0.802,3.551,1.283,6.536c5.784,2.201,3.213,3.992,2.088,8.11 c0.724,0.343,1.487,0.661,2.251,0.973c-0.039,1.194-0.081,2.355-0.121,3.52c-0.121,0-6.185-1.29-6.586-1.414 c0.923-2.581,2.61-2.607,3.699-5.249c-2.169,0.375-2.009,1.036-3.575,1.506c-1.403,0.409-2.489,0.129-3.974,0.317 c-0.522,1.695-0.039-1.479,0.121,0.688c0.081,0.818,0.483,0.034-0.081,0.913c-2.007-0.913-1.324-3.051-5.057-1.068 c0.842,0.377,1.684,0.722,2.568,1.068c-0.118,2.418-0.32,0.596-0.842,2.198c-1.287,4.116,3.494,1.571,4.737,1.35 c-0.322,2.169-1.69,2.169-3.615,2.765c-2.127,0.63-2.77,1.479-4.456,1.857c0-2.578-0.401-0.406,0.764-2.201 c-1.687,0.155-2.932,0.91-4.535,1.571l-0.16,0.06l0,0c-2.064,0.821-2.376,0.944-2.61,3.517c-1.766,0.535-3.814,1.133-5.057,2.389 c-1.246,1.162-2.492,2.324-3.696,3.457c-0.121,0.095-0.2,0.187-0.28,0.25c0.441,3.237,0,3.3-2.009,4.559 c-1.69,1.068-2.248,1.036-3.814,2.387c-5.018,4.401-2.61,2.358-2.329,9.934c-1.044-0.314-2.049-0.661-3.011-1.007 c-0.764-5.028,0.28-3.362-3.853-4.525c-4.459-1.26-3.855,0.878-5.703,1.257c-2.049,0.438-3.053-1.823-6.025,0.06 c-1.642,1.102-3.211,1.825-3.609,3.77c-0.485,2.358-1.566,4.087-1.408,6.697c0.28,7.069,6.867,7.475,8.553,4.176 c1.123-2.198,0.844-3.391,4.498-2.824c0.362,1.886-0.202,3.269-0.682,4.714c-0.322,0.85-1.207,2.387-0.766,3.551 c2.61,1.036,2.691-0.91,6.143,1.097c0.242,3.365-1.566,7.137,1.083,9.083c2.049,1.479,2.167,0.16,3.976-0.155 c2.007-0.343,1.647,0.881,3.494,1.162c1.044-1.257,0.603-0.472,1.285-2.012c1.207-2.67,1.527-1.414,4.377-3.048 c0.28-0.155,0.522-0.314,0.802-0.504c0.317,0.661,0.682,1.287,1.002,1.917c2.091-2.418,2.331-0.063,4.74,0.601 c1.033,0.275,1.774,0.375,2.342,0.383l0,0c1.753,0.024,1.93-0.807,4.321,0.021c0.283,0.129,0.643,0.223,0.968,0.314 c0.039,0,0.16,0.063,0.16,0.126c0.042,0.032,0.163,0.126,0.202,0.16c0.398,0.438,0.441,0.878,0.764,1.35 c1.647,1.54,3.295,3.082,4.899,4.588c3.169,1.225,3.169-1.07,6.783,2.352c1.524,1.414,0.842,1.385,1.687,3.206 c0.121,0.283,0.359,0.567,0.522,0.915c0.322,0.847,0.685,1.663,1.047,2.481c1.645,2.106,3.892,0.786,6.183,2.953 c1.322,1.259,0.322,0.881,3.253,1.385c4.538,0.722,2.773,0.314,6.225,2.861c1.324,0.941,1.645,0.406,2.888,1.223 c1.726,2.358,1.285,4.902-0.16,6.977c-4.456,6.348-2.93,5.312-3.132,10.34c-0.16,2.89-1.002,8.861-3.775,9.584 c-10.075,2.768-4.215,4.685-6.865,9.553c-0.764,1.385-1.327,1.729-1.809,2.83c-2.004,4.585-0.601,6.125-6.544,5.091 c0.564,0.973,0.202,0.312,0.766,1.191c1.763,2.673,2.046,4.685-1.569,5.343c-3.011,0.567-1.726,0-2.007,3.269 c-1.165,0.472-1.687,0-2.45,0.756c1.044,1.886,0.079,0.317,1.849,1.385c-0.322,1.036-0.564,2.043-0.844,3.048 c-0.68,2.45-0.881,0.189-1.123,3.051c1.044,0.469,1.766,0.372,2.689,1.603c-0.118,0.942-1.083,3.517-1.361,4.994 c1.485,2.169,2.691,4.493,5.86,4.716c-0.042,1.82,0.401,1.632-1.204,2.006c-1.366,0.314-4.257-0.941-5.461-1.569 c-2.088-1.102-4.016-2.547-5.419-4.619c-0.802-1.162-0.483-0.596-1.327-1.697c-1.527-1.917-0.92-2.797-1.364-4.087 c-0.242-0.755-1.487-1.571-0.965-4.024c0.124-0.69,1.246-3.989-0.118-3.423c-1.366,0.535,1.044,0.312-0.844,1.196 c-0.443-1.196-0.802-2.956-1.044-4.433c-0.483-2.484-1.083-2.576-1.366-4.084c-0.601-3.488,0.923-3.866-0.764-9.681 c-1.107-3.848-0.664-12.95-1.83-17.627c-0.176-0.653-0.364-1.295-0.698-1.857L165.178,242.432z"/> </g>
</svg>